<svg xmlns="http://www.w3.org/2000/svg" xmlns:xlink="http://www.w3.org/1999/xlink" width="1920" zoomAndPan="magnify" viewBox="0 0 1440 809.999993" height="1080" preserveAspectRatio="xMidYMid meet" version="1.2"><defs><clipPath id="f9e5eaa697"><path d="M 303.574219 30.828125 L 1131.574219 30.828125 L 1131.574219 182 L 303.574219 182 Z M 303.574219 30.828125 "/></clipPath><clipPath id="2a9766d54b"><path d="M 303.574219 331 L 1131.574219 331 L 1131.574219 483 L 303.574219 483 Z M 303.574219 331 "/></clipPath><clipPath id="d45a6f9820"><path d="M 303.574219 632 L 1131.574219 632 L 1131.574219 783.078125 L 303.574219 783.078125 Z M 303.574219 632 "/></clipPath></defs><g id="48ba0a7ea5"><g clip-rule="nonzero" clip-path="url(#f9e5eaa697)"><path style=" stroke:none;fill-rule:nonzero;fill:#721272;fill-opacity:1;" d="M 378.988281 181.347656 L 1056.320312 181.347656 C 1057.550781 181.347656 1058.78125 181.316406 1060.011719 181.253906 C 1061.242188 181.195312 1062.472656 181.105469 1063.695312 180.984375 C 1064.921875 180.863281 1066.144531 180.710938 1067.363281 180.53125 C 1068.582031 180.351562 1069.792969 180.140625 1071.003906 179.898438 C 1072.210938 179.660156 1073.410156 179.390625 1074.605469 179.089844 C 1075.800781 178.792969 1076.988281 178.464844 1078.167969 178.105469 C 1079.34375 177.75 1080.515625 177.363281 1081.675781 176.945312 C 1082.832031 176.53125 1083.984375 176.089844 1085.121094 175.617188 C 1086.257812 175.144531 1087.382812 174.648438 1088.496094 174.121094 C 1089.609375 173.59375 1090.710938 173.039062 1091.796875 172.460938 C 1092.882812 171.878906 1093.953125 171.273438 1095.011719 170.640625 C 1096.066406 170.003906 1097.109375 169.347656 1098.132812 168.664062 C 1099.15625 167.976562 1100.164062 167.269531 1101.152344 166.535156 C 1102.140625 165.800781 1103.113281 165.042969 1104.0625 164.261719 C 1105.015625 163.480469 1105.949219 162.675781 1106.859375 161.851562 C 1107.773438 161.023438 1108.664062 160.175781 1109.535156 159.304688 C 1110.40625 158.433594 1111.257812 157.539062 1112.082031 156.628906 C 1112.910156 155.714844 1113.714844 154.78125 1114.496094 153.832031 C 1115.277344 152.878906 1116.035156 151.910156 1116.769531 150.917969 C 1117.503906 149.929688 1118.210938 148.921875 1118.894531 147.898438 C 1119.578125 146.875 1120.238281 145.835938 1120.871094 144.777344 C 1121.503906 143.722656 1122.113281 142.648438 1122.691406 141.5625 C 1123.273438 140.476562 1123.828125 139.378906 1124.351562 138.265625 C 1124.878906 137.152344 1125.378906 136.027344 1125.851562 134.886719 C 1126.320312 133.75 1126.765625 132.601562 1127.179688 131.441406 C 1127.59375 130.28125 1127.980469 129.113281 1128.339844 127.933594 C 1128.695312 126.753906 1129.023438 125.570312 1129.324219 124.375 C 1129.621094 123.179688 1129.894531 121.976562 1130.132812 120.769531 C 1130.375 119.5625 1130.582031 118.347656 1130.765625 117.128906 C 1130.945312 115.910156 1131.097656 114.691406 1131.214844 113.464844 C 1131.335938 112.238281 1131.429688 111.011719 1131.488281 109.78125 C 1131.550781 108.550781 1131.578125 107.320312 1131.578125 106.085938 C 1131.578125 104.855469 1131.550781 103.625 1131.488281 102.394531 C 1131.429688 101.164062 1131.335938 99.9375 1131.21875 98.710938 C 1131.097656 97.484375 1130.945312 96.261719 1130.765625 95.042969 C 1130.582031 93.824219 1130.375 92.613281 1130.132812 91.40625 C 1129.894531 90.195312 1129.621094 88.996094 1129.324219 87.800781 C 1129.023438 86.605469 1128.695312 85.417969 1128.339844 84.242188 C 1127.980469 83.0625 1127.59375 81.894531 1127.179688 80.734375 C 1126.765625 79.574219 1126.320312 78.425781 1125.851562 77.285156 C 1125.378906 76.148438 1124.878906 75.023438 1124.351562 73.910156 C 1123.828125 72.796875 1123.273438 71.695312 1122.691406 70.609375 C 1122.113281 69.523438 1121.503906 68.453125 1120.871094 67.394531 C 1120.238281 66.339844 1119.578125 65.300781 1118.894531 64.277344 C 1118.210938 63.25 1117.503906 62.246094 1116.769531 61.253906 C 1116.035156 60.265625 1115.277344 59.296875 1114.496094 58.34375 C 1113.714844 57.390625 1112.910156 56.460938 1112.082031 55.546875 C 1111.257812 54.632812 1110.40625 53.742188 1109.535156 52.871094 C 1108.664062 52 1107.773438 51.152344 1106.859375 50.324219 C 1105.949219 49.496094 1105.015625 48.691406 1104.0625 47.910156 C 1103.113281 47.128906 1102.140625 46.371094 1101.152344 45.636719 C 1100.164062 44.90625 1099.15625 44.195312 1098.132812 43.511719 C 1097.109375 42.828125 1096.066406 42.167969 1095.011719 41.535156 C 1093.953125 40.902344 1092.882812 40.296875 1091.796875 39.714844 C 1090.710938 39.132812 1089.609375 38.582031 1088.496094 38.054688 C 1087.382812 37.527344 1086.257812 37.027344 1085.121094 36.558594 C 1083.984375 36.085938 1082.832031 35.640625 1081.675781 35.226562 C 1080.515625 34.8125 1079.34375 34.425781 1078.167969 34.070312 C 1076.988281 33.710938 1075.800781 33.382812 1074.605469 33.082031 C 1073.410156 32.785156 1072.210938 32.515625 1071.003906 32.273438 C 1069.792969 32.035156 1068.582031 31.824219 1067.363281 31.644531 C 1066.144531 31.460938 1064.921875 31.3125 1063.695312 31.191406 C 1062.472656 31.070312 1061.242188 30.980469 1060.011719 30.917969 C 1058.78125 30.859375 1057.550781 30.828125 1056.320312 30.828125 L 378.988281 30.828125 C 377.757812 30.828125 376.527344 30.859375 375.296875 30.917969 C 374.066406 30.980469 372.839844 31.070312 371.613281 31.191406 C 370.386719 31.3125 369.164062 31.460938 367.945312 31.644531 C 366.726562 31.824219 365.515625 32.035156 364.308594 32.273438 C 363.097656 32.515625 361.898438 32.785156 360.703125 33.082031 C 359.507812 33.382812 358.320312 33.710938 357.144531 34.070312 C 355.964844 34.425781 354.796875 34.8125 353.636719 35.226562 C 352.476562 35.640625 351.328125 36.085938 350.1875 36.558594 C 349.050781 37.027344 347.925781 37.527344 346.8125 38.054688 C 345.699219 38.582031 344.597656 39.132812 343.511719 39.714844 C 342.425781 40.296875 341.355469 40.902344 340.296875 41.535156 C 339.242188 42.167969 338.203125 42.828125 337.175781 43.511719 C 336.152344 44.195312 335.148438 44.90625 334.15625 45.636719 C 333.167969 46.371094 332.199219 47.128906 331.246094 47.910156 C 330.292969 48.691406 329.359375 49.496094 328.449219 50.324219 C 327.535156 51.152344 326.644531 52 325.773438 52.871094 C 324.902344 53.742188 324.054688 54.632812 323.226562 55.546875 C 322.398438 56.460938 321.59375 57.390625 320.8125 58.34375 C 320.03125 59.296875 319.273438 60.265625 318.539062 61.253906 C 317.808594 62.246094 317.097656 63.25 316.414062 64.277344 C 315.730469 65.300781 315.070312 66.339844 314.4375 67.394531 C 313.804688 68.453125 313.199219 69.523438 312.617188 70.609375 C 312.035156 71.695312 311.484375 72.796875 310.957031 73.910156 C 310.429688 75.023438 309.929688 76.148438 309.460938 77.285156 C 308.988281 78.425781 308.542969 79.574219 308.128906 80.734375 C 307.714844 81.894531 307.328125 83.0625 306.972656 84.242188 C 306.613281 85.417969 306.285156 86.605469 305.984375 87.800781 C 305.6875 88.996094 305.417969 90.195312 305.175781 91.40625 C 304.9375 92.613281 304.726562 93.824219 304.542969 95.042969 C 304.363281 96.261719 304.214844 97.484375 304.09375 98.710938 C 303.972656 99.9375 303.882812 101.164062 303.820312 102.394531 C 303.761719 103.625 303.730469 104.855469 303.730469 106.085938 C 303.730469 107.320312 303.761719 108.550781 303.820312 109.78125 C 303.882812 111.011719 303.972656 112.238281 304.09375 113.464844 C 304.214844 114.691406 304.363281 115.910156 304.542969 117.128906 C 304.726562 118.347656 304.9375 119.5625 305.175781 120.769531 C 305.417969 121.976562 305.6875 123.179688 305.984375 124.375 C 306.285156 125.570312 306.613281 126.753906 306.972656 127.933594 C 307.328125 129.113281 307.714844 130.28125 308.128906 131.441406 C 308.542969 132.601562 308.988281 133.75 309.460938 134.886719 C 309.929688 136.027344 310.429688 137.152344 310.957031 138.265625 C 311.484375 139.378906 312.035156 140.476562 312.617188 141.5625 C 313.199219 142.648438 313.804688 143.722656 314.4375 144.777344 C 315.070312 145.835938 315.730469 146.875 316.414062 147.898438 C 317.097656 148.921875 317.808594 149.929688 318.539062 150.917969 C 319.273438 151.910156 320.03125 152.878906 320.8125 153.832031 C 321.59375 154.78125 322.398438 155.714844 323.226562 156.628906 C 324.054688 157.539062 324.902344 158.433594 325.773438 159.304688 C 326.644531 160.175781 327.535156 161.023438 328.449219 161.851562 C 329.359375 162.675781 330.292969 163.480469 331.246094 164.261719 C 332.199219 165.042969 333.167969 165.800781 334.15625 166.535156 C 335.148438 167.269531 336.152344 167.976562 337.175781 168.664062 C 338.203125 169.347656 339.242188 170.003906 340.296875 170.640625 C 341.355469 171.273438 342.425781 171.878906 343.511719 172.460938 C 344.597656 173.039062 345.699219 173.59375 346.8125 174.121094 C 347.925781 174.648438 349.050781 175.144531 350.1875 175.617188 C 351.328125 176.089844 352.476562 176.53125 353.636719 176.945312 C 354.796875 177.363281 355.964844 177.746094 357.144531 178.105469 C 358.320312 178.464844 359.507812 178.792969 360.703125 179.089844 C 361.898438 179.390625 363.097656 179.660156 364.308594 179.898438 C 365.515625 180.140625 366.726562 180.351562 367.945312 180.53125 C 369.164062 180.710938 370.386719 180.863281 371.613281 180.984375 C 372.839844 181.105469 374.066406 181.195312 375.296875 181.253906 C 376.527344 181.316406 377.757812 181.347656 378.988281 181.347656 Z M 378.988281 181.347656 "/></g><g clip-rule="nonzero" clip-path="url(#2a9766d54b)"><path style=" stroke:none;fill-rule:nonzero;fill:#721272;fill-opacity:1;" d="M 1056.320312 331.863281 L 378.988281 331.863281 C 377.757812 331.863281 376.527344 331.894531 375.296875 331.953125 C 374.066406 332.015625 372.839844 332.105469 371.613281 332.226562 C 370.386719 332.347656 369.164062 332.5 367.945312 332.679688 C 366.726562 332.859375 365.515625 333.070312 364.308594 333.308594 C 363.097656 333.550781 361.898438 333.820312 360.703125 334.121094 C 359.507812 334.417969 358.320312 334.746094 357.144531 335.105469 C 355.964844 335.460938 354.796875 335.847656 353.636719 336.261719 C 352.476562 336.679688 351.328125 337.121094 350.1875 337.59375 C 349.050781 338.0625 347.925781 338.5625 346.8125 339.089844 C 345.699219 339.617188 344.597656 340.171875 343.511719 340.75 C 342.425781 341.332031 341.355469 341.9375 340.296875 342.570312 C 339.242188 343.203125 338.203125 343.863281 337.175781 344.546875 C 336.152344 345.230469 335.148438 345.941406 334.15625 346.675781 C 333.167969 347.410156 332.199219 348.164062 331.246094 348.945312 C 330.292969 349.730469 329.359375 350.53125 328.449219 351.359375 C 327.535156 352.1875 326.644531 353.035156 325.773438 353.90625 C 324.902344 354.777344 324.054688 355.667969 323.226562 356.582031 C 322.398438 357.496094 321.59375 358.425781 320.8125 359.378906 C 320.03125 360.332031 319.273438 361.300781 318.539062 362.292969 C 317.808594 363.28125 317.097656 364.289062 316.414062 365.3125 C 315.730469 366.335938 315.070312 367.375 314.4375 368.433594 C 313.804688 369.488281 313.199219 370.558594 312.617188 371.644531 C 312.035156 372.734375 311.484375 373.832031 310.957031 374.945312 C 310.429688 376.058594 309.929688 377.183594 309.460938 378.324219 C 308.988281 379.460938 308.542969 380.609375 308.128906 381.769531 C 307.714844 382.929688 307.328125 384.097656 306.972656 385.277344 C 306.613281 386.457031 306.285156 387.640625 305.984375 388.835938 C 305.6875 390.03125 305.417969 391.234375 305.175781 392.441406 C 304.9375 393.648438 304.726562 394.863281 304.542969 396.082031 C 304.363281 397.296875 304.214844 398.519531 304.09375 399.746094 C 303.972656 400.972656 303.882812 402.199219 303.820312 403.429688 C 303.761719 404.660156 303.730469 405.890625 303.730469 407.125 C 303.730469 408.355469 303.761719 409.585938 303.820312 410.816406 C 303.882812 412.046875 303.972656 413.273438 304.09375 414.5 C 304.214844 415.726562 304.363281 416.949219 304.542969 418.167969 C 304.726562 419.382812 304.9375 420.597656 305.175781 421.804688 C 305.417969 423.011719 305.6875 424.214844 305.984375 425.410156 C 306.285156 426.605469 306.613281 427.792969 306.972656 428.96875 C 307.328125 430.148438 307.714844 431.316406 308.128906 432.476562 C 308.542969 433.636719 308.988281 434.785156 309.460938 435.921875 C 309.929688 437.0625 310.429688 438.1875 310.957031 439.300781 C 311.484375 440.414062 312.035156 441.511719 312.617188 442.601562 C 313.199219 443.6875 313.804688 444.757812 314.4375 445.8125 C 315.070312 446.871094 315.730469 447.910156 316.414062 448.933594 C 317.097656 449.957031 317.808594 450.964844 318.539062 451.953125 C 319.273438 452.945312 320.03125 453.914062 320.8125 454.867188 C 321.59375 455.820312 322.398438 456.75 323.226562 457.664062 C 324.054688 458.578125 324.902344 459.46875 325.773438 460.339844 C 326.644531 461.210938 327.535156 462.058594 328.449219 462.886719 C 329.359375 463.714844 330.292969 464.519531 331.246094 465.300781 C 332.199219 466.082031 333.167969 466.839844 334.15625 467.570312 C 335.148438 468.304688 336.152344 469.015625 337.175781 469.699219 C 338.203125 470.382812 339.242188 471.042969 340.296875 471.675781 C 341.355469 472.308594 342.425781 472.914062 343.511719 473.496094 C 344.597656 474.078125 345.699219 474.628906 346.8125 475.15625 C 347.925781 475.683594 349.050781 476.183594 350.1875 476.652344 C 351.328125 477.125 352.476562 477.566406 353.636719 477.984375 C 354.796875 478.398438 355.964844 478.785156 357.144531 479.140625 C 358.320312 479.5 359.507812 479.828125 360.703125 480.125 C 361.898438 480.425781 363.097656 480.695312 364.308594 480.9375 C 365.515625 481.175781 366.726562 481.386719 367.945312 481.566406 C 369.164062 481.75 370.386719 481.898438 371.613281 482.019531 C 372.839844 482.140625 374.066406 482.230469 375.296875 482.292969 C 376.527344 482.351562 377.757812 482.382812 378.988281 482.382812 L 1056.320312 482.382812 C 1057.550781 482.382812 1058.78125 482.351562 1060.011719 482.292969 C 1061.242188 482.230469 1062.472656 482.140625 1063.695312 482.019531 C 1064.921875 481.898438 1066.144531 481.75 1067.363281 481.566406 C 1068.582031 481.386719 1069.792969 481.175781 1071.003906 480.9375 C 1072.210938 480.695312 1073.410156 480.425781 1074.605469 480.125 C 1075.800781 479.828125 1076.988281 479.5 1078.167969 479.140625 C 1079.34375 478.785156 1080.515625 478.398438 1081.675781 477.984375 C 1082.832031 477.566406 1083.984375 477.125 1085.121094 476.652344 C 1086.257812 476.183594 1087.382812 475.683594 1088.496094 475.15625 C 1089.609375 474.628906 1090.710938 474.078125 1091.796875 473.496094 C 1092.882812 472.914062 1093.953125 472.308594 1095.011719 471.675781 C 1096.066406 471.042969 1097.109375 470.382812 1098.132812 469.699219 C 1099.15625 469.015625 1100.164062 468.304688 1101.152344 467.570312 C 1102.140625 466.839844 1103.113281 466.082031 1104.0625 465.300781 C 1105.015625 464.519531 1105.949219 463.714844 1106.859375 462.886719 C 1107.773438 462.058594 1108.664062 461.210938 1109.535156 460.339844 C 1110.40625 459.46875 1111.257812 458.578125 1112.082031 457.664062 C 1112.910156 456.75 1113.714844 455.820312 1114.496094 454.867188 C 1115.277344 453.914062 1116.035156 452.945312 1116.769531 451.953125 C 1117.503906 450.964844 1118.210938 449.957031 1118.894531 448.933594 C 1119.578125 447.910156 1120.238281 446.871094 1120.871094 445.8125 C 1121.503906 444.757812 1122.113281 443.6875 1122.691406 442.601562 C 1123.273438 441.511719 1123.828125 440.414062 1124.351562 439.300781 C 1124.878906 438.1875 1125.378906 437.0625 1125.851562 435.921875 C 1126.320312 434.785156 1126.765625 433.636719 1127.179688 432.476562 C 1127.59375 431.316406 1127.980469 430.148438 1128.339844 428.96875 C 1128.695312 427.792969 1129.023438 426.605469 1129.324219 425.410156 C 1129.621094 424.214844 1129.894531 423.011719 1130.132812 421.804688 C 1130.375 420.597656 1130.582031 419.382812 1130.765625 418.167969 C 1130.945312 416.949219 1131.097656 415.726562 1131.214844 414.5 C 1131.335938 413.273438 1131.429688 412.046875 1131.488281 410.816406 C 1131.550781 409.585938 1131.578125 408.355469 1131.578125 407.125 C 1131.578125 405.890625 1131.550781 404.660156 1131.488281 403.429688 C 1131.429688 402.199219 1131.335938 400.972656 1131.21875 399.746094 C 1131.097656 398.519531 1130.945312 397.296875 1130.765625 396.082031 C 1130.582031 394.863281 1130.375 393.648438 1130.132812 392.441406 C 1129.894531 391.234375 1129.621094 390.03125 1129.324219 388.835938 C 1129.023438 387.640625 1128.695312 386.457031 1128.339844 385.277344 C 1127.980469 384.097656 1127.59375 382.929688 1127.179688 381.769531 C 1126.765625 380.609375 1126.320312 379.460938 1125.851562 378.324219 C 1125.378906 377.183594 1124.878906 376.058594 1124.351562 374.945312 C 1123.828125 373.832031 1123.273438 372.734375 1122.691406 371.644531 C 1122.113281 370.558594 1121.503906 369.488281 1120.871094 368.433594 C 1120.238281 367.375 1119.578125 366.335938 1118.894531 365.3125 C 1118.210938 364.289062 1117.503906 363.28125 1116.769531 362.292969 C 1116.035156 361.300781 1115.277344 360.332031 1114.496094 359.378906 C 1113.714844 358.425781 1112.910156 357.496094 1112.082031 356.582031 C 1111.257812 355.667969 1110.40625 354.777344 1109.535156 353.90625 C 1108.664062 353.035156 1107.773438 352.1875 1106.859375 351.359375 C 1105.949219 350.53125 1105.015625 349.730469 1104.0625 348.945312 C 1103.113281 348.164062 1102.140625 347.410156 1101.152344 346.675781 C 1100.164062 345.941406 1099.15625 345.230469 1098.132812 344.546875 C 1097.109375 343.863281 1096.066406 343.203125 1095.011719 342.570312 C 1093.953125 341.9375 1092.882812 341.332031 1091.796875 340.75 C 1090.710938 340.171875 1089.609375 339.617188 1088.496094 339.089844 C 1087.382812 338.5625 1086.257812 338.0625 1085.121094 337.59375 C 1083.984375 337.121094 1082.832031 336.679688 1081.675781 336.261719 C 1080.515625 335.847656 1079.34375 335.460938 1078.167969 335.105469 C 1076.988281 334.746094 1075.800781 334.417969 1074.605469 334.121094 C 1073.410156 333.820312 1072.210938 333.550781 1071.003906 333.308594 C 1069.792969 333.070312 1068.582031 332.859375 1067.363281 332.679688 C 1066.144531 332.5 1064.921875 332.347656 1063.695312 332.226562 C 1062.472656 332.105469 1061.242188 332.015625 1060.011719 331.953125 C 1058.78125 331.894531 1057.550781 331.863281 1056.320312 331.863281 Z M 1056.320312 331.863281 "/></g><g clip-rule="nonzero" clip-path="url(#d45a6f9820)"><path style=" stroke:none;fill-rule:nonzero;fill:#721272;fill-opacity:1;" d="M 1056.320312 632.898438 L 378.988281 632.898438 C 377.757812 632.898438 376.527344 632.929688 375.296875 632.992188 C 374.066406 633.050781 372.839844 633.140625 371.613281 633.261719 C 370.386719 633.382812 369.164062 633.535156 367.945312 633.714844 C 366.726562 633.894531 365.515625 634.105469 364.308594 634.347656 C 363.097656 634.585938 361.898438 634.855469 360.703125 635.15625 C 359.507812 635.453125 358.320312 635.785156 357.144531 636.140625 C 355.964844 636.5 354.796875 636.882812 353.636719 637.300781 C 352.476562 637.714844 351.328125 638.15625 350.1875 638.628906 C 349.050781 639.101562 347.925781 639.597656 346.8125 640.125 C 345.699219 640.652344 344.597656 641.207031 343.511719 641.785156 C 342.425781 642.367188 341.355469 642.972656 340.296875 643.605469 C 339.242188 644.242188 338.203125 644.898438 337.175781 645.582031 C 336.152344 646.269531 335.148438 646.976562 334.15625 647.710938 C 333.167969 648.445312 332.199219 649.203125 331.246094 649.984375 C 330.292969 650.765625 329.359375 651.570312 328.449219 652.394531 C 327.535156 653.222656 326.644531 654.070312 325.773438 654.941406 C 324.902344 655.8125 324.054688 656.707031 323.226562 657.617188 C 322.398438 658.53125 321.59375 659.464844 320.8125 660.414062 C 320.03125 661.367188 319.273438 662.339844 318.539062 663.328125 C 317.808594 664.316406 317.097656 665.324219 316.414062 666.347656 C 315.730469 667.371094 315.070312 668.410156 314.4375 669.46875 C 313.804688 670.523438 313.199219 671.597656 312.617188 672.683594 C 312.035156 673.769531 311.484375 674.867188 310.957031 675.980469 C 310.429688 677.09375 309.929688 678.222656 309.460938 679.359375 C 308.988281 680.496094 308.542969 681.644531 308.128906 682.804688 C 307.714844 683.964844 307.328125 685.132812 306.972656 686.3125 C 306.613281 687.492188 306.285156 688.679688 305.984375 689.871094 C 305.6875 691.066406 305.417969 692.269531 305.175781 693.476562 C 304.9375 694.683594 304.726562 695.898438 304.542969 697.117188 C 304.363281 698.335938 304.214844 699.558594 304.09375 700.78125 C 303.972656 702.007812 303.882812 703.234375 303.820312 704.464844 C 303.761719 705.695312 303.730469 706.925781 303.730469 708.160156 C 303.730469 709.390625 303.761719 710.621094 303.820312 711.851562 C 303.882812 713.082031 303.972656 714.308594 304.09375 715.535156 C 304.214844 716.761719 304.363281 717.984375 304.542969 719.203125 C 304.726562 720.421875 304.9375 721.632812 305.175781 722.839844 C 305.417969 724.050781 305.6875 725.25 305.984375 726.445312 C 306.285156 727.640625 306.613281 728.828125 306.972656 730.003906 C 307.328125 731.183594 307.714844 732.351562 308.128906 733.511719 C 308.542969 734.671875 308.988281 735.820312 309.460938 736.960938 C 309.929688 738.097656 310.429688 739.222656 310.957031 740.335938 C 311.484375 741.449219 312.035156 742.550781 312.617188 743.636719 C 313.199219 744.722656 313.804688 745.792969 314.4375 746.851562 C 315.070312 747.90625 315.730469 748.945312 316.414062 749.96875 C 317.097656 750.996094 317.808594 752 318.539062 752.992188 C 319.273438 753.980469 320.03125 754.949219 320.8125 755.902344 C 321.59375 756.855469 322.398438 757.789062 323.226562 758.699219 C 324.054688 759.613281 324.902344 760.503906 325.773438 761.375 C 326.644531 762.246094 327.535156 763.09375 328.449219 763.921875 C 329.359375 764.75 330.292969 765.554688 331.246094 766.335938 C 332.199219 767.117188 333.167969 767.875 334.15625 768.609375 C 335.148438 769.339844 336.152344 770.050781 337.175781 770.734375 C 338.203125 771.417969 339.242188 772.078125 340.296875 772.710938 C 341.355469 773.34375 342.425781 773.949219 343.511719 774.53125 C 344.597656 775.113281 345.699219 775.664062 346.8125 776.191406 C 347.925781 776.71875 349.050781 777.21875 350.1875 777.6875 C 351.328125 778.160156 352.476562 778.605469 353.636719 779.019531 C 354.796875 779.433594 355.964844 779.820312 357.144531 780.175781 C 358.320312 780.535156 359.507812 780.863281 360.703125 781.164062 C 361.898438 781.460938 363.097656 781.730469 364.308594 781.972656 C 365.515625 782.210938 366.726562 782.421875 367.945312 782.601562 C 369.164062 782.785156 370.386719 782.933594 371.613281 783.054688 C 372.839844 783.175781 374.066406 783.265625 375.296875 783.328125 C 376.527344 783.386719 377.757812 783.417969 378.988281 783.417969 L 1056.320312 783.417969 C 1057.550781 783.417969 1058.78125 783.386719 1060.011719 783.328125 C 1061.242188 783.265625 1062.472656 783.175781 1063.695312 783.054688 C 1064.921875 782.933594 1066.144531 782.785156 1067.363281 782.601562 C 1068.582031 782.421875 1069.792969 782.210938 1071.003906 781.972656 C 1072.210938 781.730469 1073.410156 781.460938 1074.605469 781.164062 C 1075.800781 780.863281 1076.988281 780.535156 1078.167969 780.175781 C 1079.34375 779.820312 1080.515625 779.433594 1081.675781 779.019531 C 1082.832031 778.605469 1083.984375 778.160156 1085.121094 777.6875 C 1086.257812 777.21875 1087.382812 776.71875 1088.496094 776.191406 C 1089.609375 775.664062 1090.710938 775.113281 1091.796875 774.53125 C 1092.882812 773.949219 1093.953125 773.34375 1095.011719 772.710938 C 1096.066406 772.078125 1097.109375 771.417969 1098.132812 770.734375 C 1099.15625 770.050781 1100.164062 769.339844 1101.152344 768.609375 C 1102.140625 767.875 1103.113281 767.117188 1104.0625 766.335938 C 1105.015625 765.554688 1105.949219 764.75 1106.859375 763.921875 C 1107.773438 763.09375 1108.664062 762.246094 1109.535156 761.375 C 1110.40625 760.503906 1111.257812 759.613281 1112.082031 758.699219 C 1112.910156 757.789062 1113.714844 756.855469 1114.496094 755.902344 C 1115.277344 754.949219 1116.035156 753.980469 1116.769531 752.992188 C 1117.503906 752 1118.210938 750.996094 1118.894531 749.96875 C 1119.578125 748.945312 1120.238281 747.90625 1120.871094 746.851562 C 1121.503906 745.792969 1122.113281 744.722656 1122.691406 743.636719 C 1123.273438 742.550781 1123.828125 741.449219 1124.351562 740.335938 C 1124.878906 739.222656 1125.378906 738.097656 1125.851562 736.960938 C 1126.320312 735.820312 1126.765625 734.671875 1127.179688 733.511719 C 1127.59375 732.351562 1127.980469 731.183594 1128.339844 730.003906 C 1128.695312 728.828125 1129.023438 727.640625 1129.324219 726.445312 C 1129.621094 725.25 1129.894531 724.050781 1130.132812 722.839844 C 1130.375 721.632812 1130.582031 720.421875 1130.765625 719.203125 C 1130.945312 717.984375 1131.097656 716.761719 1131.214844 715.535156 C 1131.335938 714.308594 1131.429688 713.082031 1131.488281 711.851562 C 1131.550781 710.621094 1131.578125 709.390625 1131.578125 708.160156 C 1131.578125 706.925781 1131.550781 705.695312 1131.488281 704.464844 C 1131.429688 703.234375 1131.335938 702.007812 1131.21875 700.78125 C 1131.097656 699.558594 1130.945312 698.335938 1130.765625 697.117188 C 1130.582031 695.898438 1130.375 694.683594 1130.132812 693.476562 C 1129.894531 692.269531 1129.621094 691.066406 1129.324219 689.871094 C 1129.023438 688.679688 1128.695312 687.492188 1128.339844 686.3125 C 1127.980469 685.132812 1127.59375 683.964844 1127.179688 682.804688 C 1126.765625 681.644531 1126.320312 680.496094 1125.851562 679.359375 C 1125.378906 678.222656 1124.878906 677.09375 1124.351562 675.980469 C 1123.828125 674.867188 1123.273438 673.769531 1122.691406 672.683594 C 1122.113281 671.597656 1121.503906 670.523438 1120.871094 669.46875 C 1120.238281 668.410156 1119.578125 667.371094 1118.894531 666.347656 C 1118.210938 665.324219 1117.503906 664.316406 1116.769531 663.328125 C 1116.035156 662.339844 1115.277344 661.367188 1114.496094 660.414062 C 1113.714844 659.464844 1112.910156 658.53125 1112.082031 657.617188 C 1111.257812 656.707031 1110.40625 655.8125 1109.535156 654.941406 C 1108.664062 654.070312 1107.773438 653.222656 1106.859375 652.394531 C 1105.949219 651.570312 1105.015625 650.765625 1104.0625 649.984375 C 1103.113281 649.203125 1102.140625 648.445312 1101.152344 647.710938 C 1100.164062 646.976562 1099.15625 646.269531 1098.132812 645.582031 C 1097.109375 644.898438 1096.066406 644.242188 1095.011719 643.605469 C 1093.953125 642.972656 1092.882812 642.367188 1091.796875 641.785156 C 1090.710938 641.207031 1089.609375 640.652344 1088.496094 640.125 C 1087.382812 639.597656 1086.257812 639.101562 1085.121094 638.628906 C 1083.984375 638.15625 1082.832031 637.714844 1081.675781 637.300781 C 1080.515625 636.882812 1079.34375 636.5 1078.167969 636.140625 C 1076.988281 635.785156 1075.800781 635.453125 1074.605469 635.15625 C 1073.410156 634.855469 1072.210938 634.585938 1071.003906 634.347656 C 1069.792969 634.105469 1068.582031 633.894531 1067.363281 633.714844 C 1066.144531 633.535156 1064.921875 633.382812 1063.695312 633.261719 C 1062.472656 633.140625 1061.242188 633.050781 1060.011719 632.992188 C 1058.78125 632.929688 1057.550781 632.898438 1056.320312 632.898438 Z M 1056.320312 632.898438 "/></g></g></svg>