<svg xmlns="http://www.w3.org/2000/svg" xmlns:xlink="http://www.w3.org/1999/xlink" width="1920" zoomAndPan="magnify" viewBox="0 0 1440 809.999993" height="1080" preserveAspectRatio="xMidYMid meet" version="1.2"><defs><clipPath id="5238f2e20f"><rect x="0" width="843" y="0" height="810"/></clipPath></defs><g id="af0933f245"><rect x="0" width="1440" y="0" height="809.999993" style="fill:#ffffff;fill-opacity:1;stroke:none;"/><rect x="0" width="1440" y="0" height="809.999993" style="fill:#ffffff;fill-opacity:1;stroke:none;"/><g transform="matrix(1,0,0,1,306,0.000000000000039746)"><g clip-path="url(#5238f2e20f)"><g style="fill:#721272;fill-opacity:1;"><g transform="translate(0.54796, 776.221749)"><path style="stroke:none" d="M 51.59375 0 C 43.226562 0 35.789062 -3.019531 29.28125 -9.0625 C 22.769531 -15.101562 19.515625 -22.769531 19.515625 -32.0625 C 19.515625 -39.5 22.304688 -46.472656 27.890625 -52.984375 L 259.34375 -372.296875 L 48.796875 -672.0625 C 43.222656 -679.5 40.4375 -686.472656 40.4375 -692.984375 C 40.4375 -702.273438 43.6875 -709.941406 50.1875 -715.984375 C 56.695312 -722.023438 64.132812 -725.046875 72.5 -725.046875 L 252.375 -725.046875 C 263.53125 -725.046875 271.894531 -722.722656 277.46875 -718.078125 C 283.050781 -713.429688 288.628906 -707.390625 294.203125 -699.953125 L 416.90625 -528.453125 L 541 -699.953125 C 541.925781 -700.878906 544.25 -703.664062 547.96875 -708.3125 C 551.6875 -712.96875 556.566406 -716.921875 562.609375 -720.171875 C 568.648438 -723.421875 575.390625 -725.046875 582.828125 -725.046875 L 754.328125 -725.046875 C 762.691406 -725.046875 770.128906 -722.023438 776.640625 -715.984375 C 783.148438 -709.941406 786.40625 -702.738281 786.40625 -694.375 C 786.40625 -686.9375 783.613281 -679.5 778.03125 -672.0625 L 563.3125 -372.296875 L 798.953125 -52.984375 C 803.597656 -46.472656 805.921875 -39.5 805.921875 -32.0625 C 805.921875 -22.769531 802.898438 -15.101562 796.859375 -9.0625 C 790.816406 -3.019531 783.148438 0 773.859375 0 L 585.609375 0 C 569.804688 0 556.796875 -7.4375 546.578125 -22.3125 L 411.34375 -206.359375 L 274.6875 -22.3125 C 269.113281 -14.875 263.535156 -9.296875 257.953125 -5.578125 C 252.378906 -1.859375 244.476562 0 234.25 0 Z M 51.59375 0 "/></g></g></g></g></g></svg>