<?xml version="1.0" standalone="no"?>
<!DOCTYPE svg PUBLIC "-//W3C//DTD SVG 20010904//EN"
 "http://www.w3.org/TR/2001/REC-SVG-20010904/DTD/svg10.dtd">
<svg version="1.0" xmlns="http://www.w3.org/2000/svg"
 width="352.000000pt" height="287.000000pt" viewBox="0 0 352.000000 287.000000"
 preserveAspectRatio="xMidYMid meet">

<g transform="translate(0.000000,287.000000) scale(0.100000,-0.100000)"
fill="#ffffff" stroke="none">
<path d="M1682 2833 c-54 -77 -67 -116 -67 -203 0 -62 5 -95 18 -121 21 -42
80 -109 96 -109 7 0 11 27 12 73 1 54 3 65 9 42 4 -16 8 -47 9 -67 0 -21 5
-38 10 -38 17 0 49 55 66 114 21 72 15 136 -18 210 -22 48 -89 126 -108 126
-4 0 -16 -12 -27 -27z"/>
<path d="M2132 2804 c-20 -23 -42 -80 -42 -111 0 -15 5 -46 11 -68 10 -34 13
-37 20 -20 7 20 8 20 8 -1 1 -35 13 -35 42 3 36 45 39 113 9 173 -22 44 -28
47 -48 24z"/>
<path d="M1364 2746 c-6 -26 10 -93 29 -116 25 -31 70 -60 94 -60 25 0 25 0 7
28 -16 24 -16 25 -1 13 10 -8 19 -12 22 -9 12 12 -25 88 -61 125 -46 49 -80
56 -90 19z"/>
<path d="M2315 2698 c-58 -39 -95 -102 -95 -163 0 -51 8 -60 33 -38 19 17 20
17 8 -4 -10 -20 -9 -23 7 -23 33 0 86 44 110 90 18 35 22 58 20 105 -4 74 -16
79 -83 33z"/>
<path d="M1036 2682 c-14 -43 33 -171 83 -230 36 -42 211 -105 211 -76 0 5
-26 35 -57 68 l-58 59 65 -53 c59 -49 65 -52 68 -32 4 28 -39 122 -78 173 -34
42 -131 96 -192 105 -30 5 -37 3 -42 -14z"/>
<path d="M1969 2626 c-69 -47 -119 -150 -119 -245 0 -78 13 -79 54 -4 37 69
40 55 5 -26 -11 -24 -17 -46 -15 -48 2 -3 17 2 33 11 44 22 100 89 112 133 21
76 7 203 -23 203 -6 0 -27 -11 -47 -24z"/>
<path d="M2523 2579 c-83 -41 -133 -120 -133 -211 0 -32 4 -39 25 -44 91 -23
187 83 189 209 1 55 -1 62 -19 64 -11 1 -39 -7 -62 -18z m-93 -233 c0 -3 -4
-8 -10 -11 -5 -3 -10 -1 -10 4 0 6 5 11 10 11 6 0 10 -2 10 -4z"/>
<path d="M823 2510 c7 -56 63 -122 132 -155 74 -37 87 -29 40 26 -39 44 -39
44 -4 11 19 -18 39 -29 44 -25 4 5 5 3 1 -4 -6 -10 30 -30 39 -21 2 2 -1 25
-7 51 -17 84 -113 156 -207 157 l-44 0 6 -40z"/>
<path d="M1472 2495 c-15 -32 -15 -147 -2 -197 15 -52 67 -117 124 -156 27
-18 51 -30 53 -28 3 3 -7 30 -21 62 -35 77 -32 83 6 9 27 -52 32 -57 43 -42
31 42 25 149 -11 219 -24 47 -144 158 -171 158 -5 0 -15 -11 -21 -25z"/>
<path d="M2145 2471 c-47 -22 -109 -84 -124 -124 -12 -32 -15 -140 -4 -151 4
-4 16 3 26 16 l18 23 -11 -23 c-17 -35 -5 -38 45 -14 67 32 99 87 103 176 2
39 0 81 -5 93 -8 22 -8 22 -48 4z"/>
<path d="M2760 2374 c-63 -27 -120 -96 -120 -144 0 -25 4 -25 43 2 l32 21 -34
-35 c-32 -35 -32 -36 -11 -43 47 -15 138 18 193 70 32 30 67 96 67 125 0 18
-6 20 -67 20 -38 -1 -84 -8 -103 -16z"/>
<path d="M503 2303 c-10 -27 7 -105 34 -155 40 -74 132 -138 198 -138 28 0 32
12 10 30 -9 7 -26 27 -37 44 -18 26 -14 23 28 -14 49 -45 49 -45 52 -19 4 33
-33 132 -63 167 -49 59 -209 120 -222 85z"/>
<path d="M804 2258 c9 -64 33 -122 71 -166 34 -40 137 -94 172 -90 l25 3 -31
39 c-42 53 -39 58 8 12 45 -44 56 -36 41 31 -14 63 -52 126 -95 158 -42 33
-125 65 -166 65 l-32 0 7 -52z"/>
<path d="M2518 2290 c-72 -21 -142 -110 -136 -171 l3 -32 35 28 35 29 -27 -30
c-16 -17 -28 -33 -28 -37 0 -13 34 -7 77 14 57 27 93 84 100 155 6 59 2 62
-59 44z"/>
<path d="M1087 2270 c-7 -26 7 -84 28 -116 20 -31 108 -89 113 -74 2 5 8 8 13
4 12 -7 11 58 -2 93 -14 38 -57 82 -98 99 -43 18 -48 18 -54 -6z"/>
<path d="M1320 2226 c0 -80 28 -125 109 -177 56 -36 63 -36 51 -1 l-10 27 20
-25 20 -25 0 45 c0 66 -35 128 -94 168 -26 17 -59 32 -72 32 -22 0 -24 -4 -24
-44z"/>
<path d="M1784 2219 c-38 -76 -61 -165 -74 -283 -18 -156 -2 -286 60 -486 21
-69 46 -170 56 -225 22 -127 26 -397 5 -470 -22 -81 -71 -163 -124 -211 -31
-27 -44 -45 -36 -48 145 -43 217 -68 232 -78 16 -12 14 -17 -35 -67 -63 -64
-98 -110 -98 -128 0 -20 176 72 209 110 l29 31 68 -45 c38 -25 116 -83 174
-129 122 -98 189 -144 196 -137 11 11 -305 316 -406 391 -58 44 -109 82 -113
86 -5 4 -3 25 3 46 7 22 15 119 18 217 l7 179 30 24 c35 28 101 60 165 81 64
21 264 28 357 14 156 -25 388 -103 509 -172 l51 -29 6 -67 c4 -38 7 -162 8
-278 1 -141 4 -194 9 -160 5 28 9 148 9 268 1 119 4 217 7 217 11 0 50 -23 87
-52 l37 -30 2 -156 2 -157 3 140 c2 77 7 143 12 148 5 5 50 -31 102 -80 88
-84 91 -86 59 -38 -55 83 -200 218 -322 299 -247 164 -495 246 -747 246 -131
0 -212 -13 -319 -49 l-82 -29 -5 22 c-22 104 -59 248 -85 331 -56 180 -73 307
-67 495 3 93 12 195 21 234 9 38 14 72 12 74 -3 2 -17 -20 -32 -49z"/>
<path d="M2253 2204 c-69 -34 -123 -119 -123 -195 0 -38 10 -42 38 -17 l25 23
-12 -22 c-15 -29 -14 -33 9 -33 24 0 86 53 106 91 18 36 20 169 2 169 -7 0
-28 -8 -45 -16z"/>
<path d="M2945 2160 c-37 -24 -89 -108 -60 -96 15 5 16 4 6 -8 -10 -12 -7 -15
18 -21 66 -14 152 31 188 99 19 37 7 46 -67 46 -37 0 -65 -7 -85 -20z"/>
<path d="M2606 2157 c-278 -170 -706 -510 -722 -572 -6 -24 23 -125 36 -125 5
0 20 21 36 48 69 119 245 302 419 432 116 87 275 218 275 226 0 8 -25 3 -44
-9z"/>
<path d="M1993 2119 c-50 -24 -119 -96 -139 -144 -21 -52 -18 -175 6 -175 4 0
15 21 25 46 22 59 30 51 9 -10 -9 -26 -14 -50 -11 -53 11 -11 94 46 129 89 43
54 58 96 58 167 0 67 -8 101 -24 101 -6 0 -30 -9 -53 -21z"/>
<path d="M370 2075 c0 -63 65 -140 148 -177 54 -24 64 -17 26 19 -58 56 -57
66 1 14 l60 -54 3 36 c8 91 -101 187 -210 187 -23 0 -28 -4 -28 -25z"/>
<path d="M2690 2088 c-85 -23 -162 -109 -176 -195 -8 -50 2 -54 49 -21 l32 21
-28 -30 c-28 -30 -28 -31 -8 -38 35 -11 104 5 145 33 52 36 89 107 94 183 l4
59 -38 -1 c-22 -1 -55 -5 -74 -11z m-50 -162 c0 -2 -8 -10 -17 -17 -16 -13
-17 -12 -4 4 13 16 21 21 21 13z"/>
<path d="M1144 2036 c-10 -25 24 -119 56 -158 29 -35 98 -68 142 -68 24 0 23
8 -4 39 l-23 26 27 -24 c16 -14 30 -22 33 -19 13 12 -37 116 -72 150 -59 57
-146 87 -159 54z"/>
<path d="M3127 1996 c-59 -22 -103 -62 -133 -121 -14 -31 -24 -58 -21 -61 3
-4 31 8 61 26 71 40 72 32 4 -15 l-53 -35 45 0 c25 0 63 9 85 19 65 29 125
113 125 176 0 22 -4 25 -37 25 -21 -1 -55 -7 -76 -14z"/>
<path d="M990 1908 c68 -67 116 -104 170 -132 198 -103 266 -152 336 -241 70
-90 120 -238 124 -365 4 -108 8 -103 -57 -73 -48 22 -77 27 -163 31 -316 13
-739 -170 -1008 -435 -98 -97 -102 -104 -24 -44 24 19 44 32 46 30 2 -2 8 -17
14 -34 l10 -30 1 36 c1 19 7 42 14 51 15 18 80 58 96 58 8 0 12 -74 13 -257
l2 -258 6 267 c3 147 8 269 10 271 20 16 138 81 195 107 359 163 623 190 724
74 39 -44 46 -70 46 -174 0 -95 -17 -152 -70 -236 -76 -120 -175 -212 -410
-382 -202 -146 -204 -147 -130 -122 142 49 349 162 478 261 26 20 27 20 27 1
0 -10 11 -41 25 -67 l26 -48 -24 -26 c-99 -108 -126 -142 -127 -162 0 -11 173
78 198 101 l23 22 35 -27 c19 -14 49 -42 68 -61 18 -18 35 -34 38 -34 17 0
-20 97 -78 206 -49 92 -67 137 -71 177 -5 50 -3 56 41 119 96 138 144 298 153
510 11 265 -47 457 -179 589 -61 61 -171 121 -318 173 -89 31 -144 63 -265
152 l-90 65 95 -93z"/>
<path d="M1427 1983 c-4 -3 -7 -31 -7 -60 0 -90 36 -145 139 -214 51 -33 61
-35 61 -14 0 8 -5 15 -11 15 -5 0 -7 5 -4 10 3 6 2 10 -3 10 -5 0 -9 8 -9 17
0 15 1 15 11 -1 6 -10 19 -28 29 -40 18 -21 18 -20 14 44 -7 108 -56 175 -160
223 -41 19 -50 20 -60 10z"/>
<path d="M673 1942 c-15 -9 -4 -59 21 -97 43 -65 156 -136 239 -150 52 -8 47
7 -20 57 -102 77 -99 87 5 16 23 -16 42 -26 42 -22 0 4 6 0 13 -11 8 -10 19
-15 25 -11 5 3 12 0 15 -6 11 -31 17 4 7 41 -15 55 -65 119 -124 155 -42 25
-61 30 -130 33 -45 2 -87 0 -93 -5z"/>
<path d="M256 1915 c-61 -21 -71 -36 -47 -67 12 -14 39 -33 62 -42 47 -19 148
-23 176 -8 15 9 13 12 -17 21 l-35 10 43 -5 c29 -4 42 -2 42 6 0 22 -66 78
-105 89 -51 14 -71 13 -119 -4z m131 -81 c-3 -3 -12 -4 -19 -1 -8 3 -5 6 6 6
11 1 17 -2 13 -5z"/>
<path d="M2770 1843 c-24 -9 -70 -55 -87 -86 -16 -31 -10 -48 9 -29 7 7 16 12
21 12 5 0 -1 -9 -14 -19 l-24 -19 28 -7 c15 -4 48 -4 73 0 38 5 56 16 96 56
35 35 48 56 46 72 -3 20 -9 22 -68 24 -36 1 -72 -1 -80 -4z"/>
<path d="M2390 1831 c-44 -14 -92 -42 -116 -68 -30 -32 -30 -43 -1 -36 18 4
19 3 7 -6 -13 -10 -12 -13 5 -26 46 -36 145 -45 199 -20 45 22 100 80 93 99
-14 37 -135 74 -187 57z m-63 -97 c-3 -3 -12 -4 -19 -1 -8 3 -5 6 6 6 11 1 17
-2 13 -5z"/>
<path d="M165 1756 c-22 -6 -39 -16 -38 -21 4 -27 43 -69 83 -90 76 -39 196
-46 145 -9 -15 11 -13 12 20 7 l37 -6 -16 30 c-21 41 -69 80 -114 93 -46 12
-66 12 -117 -4z m155 -96 c8 -5 11 -10 5 -10 -5 0 -17 5 -25 10 -8 5 -10 10
-5 10 6 0 17 -5 25 -10z"/>
<path d="M563 1760 c-23 -5 -55 -16 -72 -25 -31 -15 -31 -16 -16 -45 28 -54
112 -105 201 -121 58 -11 138 -4 129 11 -3 5 -37 20 -76 35 -83 32 -88 44 -6
16 30 -11 66 -17 79 -14 18 4 20 3 8 -6 -12 -9 -10 -11 13 -11 38 0 34 19 -13
73 -65 73 -156 105 -247 87z"/>
<path d="M3223 1750 c-33 -20 -70 -67 -60 -76 3 -3 16 1 29 10 12 9 27 16 33
16 5 0 -5 -10 -22 -21 -48 -30 -42 -42 18 -37 56 6 93 28 127 79 22 31 22 34
5 40 -35 14 -98 9 -130 -11z"/>
<path d="M1073 1708 c-40 -13 -41 -27 -8 -66 36 -42 102 -72 164 -73 67 -2 74
6 22 27 -56 22 -47 27 11 6 26 -9 50 -13 54 -10 11 12 -35 76 -71 98 -41 25
-126 34 -172 18z"/>
<path d="M2910 1683 c-32 -5 -98 -51 -119 -82 l-15 -24 39 7 40 6 -40 -19 -40
-19 40 -17 c52 -23 141 -24 182 -2 46 24 103 76 103 94 0 29 -127 67 -190 56z"/>
<path d="M2145 1623 c-33 -18 -58 -45 -80 -85 -18 -32 -7 -36 33 -12 l27 16
-28 -22 c-15 -12 -25 -26 -21 -31 7 -12 70 -11 116 1 61 17 139 120 107 141
-23 14 -122 9 -154 -8z"/>
<path d="M2484 1604 c-22 -8 -56 -28 -75 -45 l-34 -30 60 4 c33 3 69 2 80 -2
13 -6 1 -10 -42 -13 -34 -3 -69 -10 -78 -16 -15 -8 -8 -14 38 -36 31 -15 74
-30 96 -33 54 -7 142 22 188 63 l38 34 -30 25 c-38 32 -126 65 -168 64 -18 0
-50 -7 -73 -15z"/>
<path d="M80 1569 c-24 -11 -46 -22 -49 -25 -9 -9 45 -57 84 -75 42 -19 134
-24 170 -9 22 9 18 11 -45 29 -28 7 -22 8 29 4 l65 -6 -22 31 c-28 38 -97 72
-148 72 -21 0 -59 -10 -84 -21z"/>
<path d="M1320 1559 c-33 -13 -33 -14 -20 -39 6 -12 30 -30 53 -41 45 -20 123
-26 112 -9 -3 6 1 10 9 10 20 0 20 10 0 39 -30 43 -101 61 -154 40z"/>
<path d="M3158 1539 c-27 -12 -48 -25 -48 -29 0 -5 24 -12 53 -16 l52 -9 -60
-5 -60 -5 40 -38 c22 -20 58 -46 80 -57 68 -33 194 -23 245 18 l21 17 -28 37
c-15 20 -50 51 -78 69 -66 44 -146 50 -217 18z"/>
<path d="M474 1510 c-32 -17 -67 -41 -76 -54 -17 -23 -17 -24 21 -49 67 -44
134 -61 187 -48 76 19 147 61 131 77 -3 3 -27 9 -54 14 l-48 9 58 -4 c31 -3
57 -2 57 1 0 12 -45 47 -85 65 -60 28 -121 24 -191 -11z"/>
<path d="M857 1500 c-56 -35 -54 -49 12 -88 39 -23 57 -27 121 -27 50 0 85 6
105 17 l30 16 -50 7 c-71 9 -80 16 -15 10 71 -6 92 5 65 35 -36 40 -90 60
-158 60 -53 0 -71 -5 -110 -30z"/>
<path d="M2884 1488 c-36 -12 -125 -77 -132 -96 -3 -9 4 -11 25 -6 27 6 27 6
8 -9 -19 -15 -19 -16 19 -32 22 -9 63 -19 92 -22 64 -7 131 22 170 73 l26 34
-23 20 c-28 22 -103 50 -133 49 -12 -1 -35 -6 -52 -11z"/>
<path d="M1252 1405 c9 -75 68 -152 149 -193 50 -26 75 -33 108 -30 l43 3 -41
40 c-22 22 -41 44 -41 50 0 5 17 -8 38 -28 44 -43 52 -45 52 -13 0 64 -67 148
-148 187 -23 12 -70 23 -104 26 l-61 6 5 -48z"/>
<path d="M2119 1436 c-57 -20 -98 -54 -135 -112 -19 -29 -34 -58 -34 -64 0
-16 27 -12 70 10 22 11 40 18 40 15 0 -2 -21 -16 -47 -29 -47 -24 -47 -24 -21
-31 36 -9 134 20 177 52 40 31 91 108 91 139 0 12 -7 25 -16 28 -26 10 -86 6
-125 -8z"/>
<path d="M110 1404 c-35 -15 -100 -71 -100 -86 0 -4 14 -15 32 -24 71 -37 236
3 231 55 -2 12 1 20 5 17 4 -2 14 -1 21 3 20 13 -68 51 -115 51 -21 -1 -55 -8
-74 -16z m138 -61 c-10 -2 -26 -2 -35 0 -10 3 -2 5 17 5 19 0 27 -2 18 -5z"/>
<path d="M2364 1396 c-36 -16 -114 -88 -114 -105 0 -8 5 -9 19 -1 11 5 23 10
28 10 4 -1 -5 -8 -22 -17 l-30 -16 35 -15 c101 -43 234 -2 294 90 17 27 17 27
-16 44 -44 23 -154 29 -194 10z"/>
<path d="M531 1308 c-45 -31 -90 -87 -93 -118 -3 -24 -1 -25 61 -28 79 -4 109
8 161 64 46 50 49 64 18 65 -18 1 -19 2 -5 6 38 10 9 28 -49 31 -49 2 -66 -1
-93 -20z"/>
<path d="M1093 1319 c-39 -11 -39 -12 -13 -49 25 -35 87 -60 148 -60 44 1 46
2 27 16 -19 15 -19 15 8 9 33 -9 34 3 5 40 -38 49 -102 65 -175 44z"/>
<path d="M2618 1319 c-29 -16 -21 -29 20 -31 29 -1 26 -2 -18 -7 l-55 -6 39
-37 c84 -80 197 -103 284 -59 23 12 42 26 42 31 0 19 -60 76 -103 98 -34 17
-61 22 -118 22 -41 0 -82 -5 -91 -11z"/>
<path d="M3118 1313 c-45 -18 -49 -33 -10 -34 15 -1 38 -5 52 -10 17 -6 9 -7
-26 -3 -29 3 -54 1 -58 -4 -7 -12 54 -75 107 -110 38 -25 48 -27 148 -27 59 0
111 3 114 7 24 24 -73 149 -140 179 -49 23 -136 24 -187 2z"/>
<path d="M796 1265 c-53 -20 -141 -90 -167 -132 -12 -19 -20 -35 -18 -37 47
-41 168 -56 252 -32 56 16 176 97 185 124 5 16 -68 8 -132 -14 -47 -17 -53
-17 -39 -3 6 6 48 23 94 38 l84 28 -35 18 c-47 25 -171 30 -224 10z"/>
<path d="M193 1242 c-28 -10 -68 -31 -88 -46 -42 -32 -97 -104 -92 -120 6 -18
99 -37 154 -32 73 6 130 35 185 92 53 54 59 69 26 61 -13 -3 -39 -8 -58 -11
-25 -3 -20 0 18 12 28 9 52 20 52 24 0 9 -55 26 -105 33 -26 3 -58 -1 -92 -13z"/>
<path d="M3015 1124 c20 -16 20 -16 -2 -9 -27 7 -28 3 -9 -33 33 -64 99 -102
173 -102 28 0 33 4 33 23 0 30 -50 106 -81 123 -13 7 -49 13 -79 13 -52 0 -54
-1 -35 -15z"/>
<path d="M495 1036 c-56 -25 -126 -119 -109 -147 11 -19 100 -9 151 16 55 28
126 104 84 90 -16 -5 -20 -3 -15 9 3 9 12 16 20 16 19 0 18 16 -2 24 -27 10
-98 6 -129 -8z m75 -61 c-14 -8 -29 -14 -35 -14 -5 0 1 6 15 14 14 8 30 14 35
14 6 0 -1 -6 -15 -14z"/>
<path d="M3285 1027 c62 -46 78 -66 25 -32 -50 33 -55 34 -58 16 -3 -21 26
-83 57 -119 27 -31 103 -63 154 -65 36 -2 42 1 45 20 5 34 -37 120 -74 153
-37 32 -89 50 -144 50 l-35 -1 30 -22z"/>
<path d="M173 977 c-82 -30 -152 -123 -166 -221 l-6 -38 52 4 c68 6 117 30
173 87 45 45 90 118 80 128 -3 3 -22 -8 -43 -24 -21 -16 -54 -40 -73 -53 -48
-33 -19 3 32 40 21 15 35 30 32 33 -3 2 6 14 20 25 15 11 26 23 26 26 0 10
-93 5 -127 -7z"/>
<path d="M269 943 c-13 -16 -12 -17 4 -4 16 13 21 21 13 21 -2 0 -10 -8 -17
-17z"/>
<path d="M2430 837 c0 -3 7 -22 16 -43 l15 -39 -27 33 c-34 43 -44 30 -44 -61
0 -48 6 -79 20 -106 23 -46 105 -121 132 -121 25 0 39 41 41 120 1 80 -26 134
-87 178 -50 35 -66 45 -66 39z"/>
</g>
</svg>
